<?xml version="1.0" encoding="UTF-8" standalone="no"?>
<!-- Created with Inkscape (http://www.inkscape.org/) -->

<svg
   width="1500"
   height="500"
   viewBox="0 0 1500 500"
   version="1.1"
   id="svg1"
   xml:space="preserve"
   inkscape:version="1.3.2 (091e20ef0f, 2023-11-25)"
   sodipodi:docname="kahawa_logo_textmark.svg"
   inkscape:export-filename="kahawa_logo_textmark.webp"
   inkscape:export-xdpi="96"
   inkscape:export-ydpi="96"
   xmlns:inkscape="http://www.inkscape.org/namespaces/inkscape"
   xmlns:sodipodi="http://sodipodi.sourceforge.net/DTD/sodipodi-0.dtd"
   xmlns:xlink="http://www.w3.org/1999/xlink"
   xmlns="http://www.w3.org/2000/svg"
   xmlns:svg="http://www.w3.org/2000/svg"><sodipodi:namedview
     id="namedview1"
     pagecolor="#ffffff"
     bordercolor="#666666"
     borderopacity="1.0"
     inkscape:showpageshadow="2"
     inkscape:pageopacity="0.0"
     inkscape:pagecheckerboard="0"
     inkscape:deskcolor="#d1d1d1"
     inkscape:document-units="px"
     inkscape:zoom="0.17664453"
     inkscape:cx="1030.3178"
     inkscape:cy="651.02498"
     inkscape:window-width="1163"
     inkscape:window-height="844"
     inkscape:window-x="0"
     inkscape:window-y="0"
     inkscape:window-maximized="1"
     inkscape:current-layer="layer1" /><defs
     id="defs1"><linearGradient
       id="linearGradient8"
       inkscape:collect="always"><stop
         style="stop-color:#3b2d90;stop-opacity:1;"
         offset="0"
         id="stop8" /><stop
         style="stop-color:#50134d;stop-opacity:1;"
         offset="0.42410332"
         id="stop9" /></linearGradient><linearGradient
       inkscape:collect="always"
       xlink:href="#linearGradient8"
       id="linearGradient9"
       x1="1048.4802"
       y1="493.89767"
       x2="517.88995"
       y2="-542.46332"
       gradientUnits="userSpaceOnUse" /></defs><g
     inkscape:groupmode="layer"
     id="layer12"
     inkscape:label="background"><rect
       style="font-variation-settings:'wght' 300;fill:url(#linearGradient9);fill-opacity:1;stroke:none;stroke-width:6.20488;stroke-linecap:round;stroke-opacity:1"
       id="rect8"
       width="1534.7069"
       height="531.43469"
       x="-16.965866"
       y="-21.347172" /></g><g
     inkscape:label="Layer 1"
     inkscape:groupmode="layer"
     id="layer1"><image
       preserveAspectRatio="none"
       inkscape:svg-dpi="96"
       width="512"
       height="512"
       style="image-rendering:optimizeQuality"
       xlink:href="kahawa.svg"
       id="image1"
       x="20"
       y="-28.118645"
       inkscape:label="kahawa mascot" /><g
       id="g6"
       transform="matrix(1.1671712,0,0,1.1671712,-101.66979,-146.49088)"
       style="fill:#ececec"
       inkscape:label="kahawa text"><path
         id="text1"
         style="font-style:normal;font-variant:normal;font-weight:normal;font-stretch:normal;font-size:233.051px;line-height:1.25;font-family:'Roboto Mono Thin for Powerline';-inkscape-font-specification:'Roboto Mono Thin for Powerline, Normal';font-variant-ligatures:normal;font-variant-caps:normal;font-variant-numeric:normal;font-variant-east-asian:normal;letter-spacing:0px;word-spacing:0px;fill:#ececec;fill-opacity:1;stroke:none;stroke-width:5.82625"
         d="m 561.75977,417.4044 c 11.87304,0 23.74609,0 35.61914,0 0,-9.0651 0,-18.13021 0,-27.19531 4.67563,-5.23523 9.34912,-10.47237 14.02539,-15.70703 8.03538,14.30029 16.06887,28.60163 24.10351,42.90234 12.8392,0 25.67839,0 38.51758,0 -14.05505,-21.9149 -28.11244,-43.8283 -42.16601,-65.74414 13.06765,-15.59489 26.13824,-31.18731 39.20703,-46.78125 -12.85026,0 -25.70052,0 -38.55079,0 -10.40961,13.36124 -20.81835,26.72317 -31.22851,40.08398 -1.30273,0 -2.60547,0 -3.9082,0 0,-28.58724 0,-57.17448 0,-85.76172 -11.87305,0 -23.7461,0 -35.61914,0 0,52.73438 0,105.46875 0,158.20313 z M 738.5,302.09776 c -4.91928,0.0965 -9.82882,0.61673 -14.66016,1.54687 -0.53827,0.11699 -1.40935,0.2776 -2.07604,0.43243 -6.80364,1.47607 -13.40996,3.78742 -19.73841,6.67695 -0.87903,0.41088 -2.14889,1.00741 -3.02344,1.4414 -2.52662,1.25421 -5.0114,2.59209 -7.45117,4.00782 4.03776,7.40169 8.07552,14.80338 12.11328,22.20508 7.64773,-3.96154 15.74594,-7.49547 24.39258,-8.41602 4.61899,-0.41303 9.43775,-0.35818 13.81689,1.33735 3.4446,1.30127 6.27557,4.10365 7.53467,7.57281 0.85437,2.15611 1.0819,4.4783 1.36719,6.75976 -6.1153,0.6353 -12.26927,1.39359 -18.25727,2.51708 -9.47783,1.78671 -18.97026,4.26459 -27.49785,8.88743 -6.0712,3.3081 -11.6049,8.05131 -14.67987,14.34864 -3.16578,6.40455 -3.74933,13.84594 -2.76228,20.74099 0.25071,1.63896 0.60584,3.26173 1.07032,4.85352 0.0947,0.32987 0.32792,1.06439 0.49023,1.54297 2.51946,7.50482 7.81502,14.13064 14.85938,17.83398 7.56708,4.02008 16.61948,4.70154 24.89751,2.80649 4.36638,-1.01525 8.52095,-2.82981 12.34663,-5.15219 0.38766,-0.23563 1.08678,-0.66946 1.58108,-0.99823 1.89733,-1.23549 3.83734,-2.70509 5.50485,-4.07404 1.08101,-0.88972 2.1287,-1.81849 3.17188,-2.75195 1.08464,0 2.16927,0 3.25391,0 0.92832,3.72999 1.86363,7.45824 2.79492,11.1875 9.6888,0 19.3776,0 29.0664,0 -0.0105,-21.54957 0.0212,-43.09936 -0.0159,-64.6488 -0.18075,-9.65853 -1.48204,-19.51069 -5.59807,-28.34244 -3.03261,-6.57479 -7.93299,-12.33948 -14.19612,-16.03137 -4.58418,-2.74815 -9.74277,-4.42703 -14.98869,-5.35239 -0.35917,-0.0509 -1.1006,-0.18754 -1.61469,-0.25411 -3.87136,-0.568 -7.79198,-0.74741 -11.70172,-0.67753 z m 12.03125,65.56836 c 0,5.54101 0,11.08203 0,16.62305 -3.0477,3.42237 -6.43142,6.89938 -10.91797,8.31835 -3.52017,1.09948 -7.37049,1.09437 -10.92014,0.1322 -3.09695,-0.82862 -5.89164,-3.1104 -6.82232,-6.24709 -1.24702,-3.93509 -0.17944,-8.45361 2.6389,-11.45926 3.34397,-3.65868 8.08864,-5.59678 12.73442,-7.01569 4.33804,-1.29868 8.81602,-2.02367 13.28711,-2.68555 0,0.778 0,1.55599 0,2.33399 z"
         inkscape:label="ka" /><circle
         style="fill:#ececec;fill-opacity:1;stroke:none;stroke-width:3.75533;stroke-linecap:round;stroke-opacity:1"
         id="path4"
         cx="821.09979"
         cy="360.63358"
         r="11.476089"
         inkscape:label="dot" /><text
         xml:space="preserve"
         style="font-style:normal;font-weight:normal;font-size:232.221px;line-height:1.25;font-family:sans-serif;letter-spacing:0px;word-spacing:0px;fill:#ececec;fill-opacity:1;stroke:none;stroke-width:5.80552"
         x="809.99805"
         y="423.40292"
         id="text5"
         transform="scale(1.0194508,0.98092031)"
         inkscape:label="ha"><tspan
           sodipodi:role="line"
           id="tspan5"
           x="809.99805"
           y="423.40292"
           style="font-style:normal;font-variant:normal;font-weight:normal;font-stretch:normal;font-size:209.131px;font-family:Sans;-inkscape-font-specification:'Sans, @wght=300';font-variant-ligatures:normal;font-variant-caps:normal;font-variant-numeric:normal;font-variant-east-asian:normal;font-variation-settings:'wght' 300;fill:#ececec;stroke-width:5.80552">ha<tspan
   style="font-style:normal;font-variant:normal;font-weight:200;font-stretch:normal;font-size:209.131px;font-family:'Source Sans Variable';-inkscape-font-specification:'Source Sans Variable, Ultra-Light';font-variant-ligatures:normal;font-variant-caps:normal;font-variant-numeric:normal;font-variant-east-asian:normal;fill:#ececec;stroke-width:5.80552"
   id="tspan6" /></tspan></text><text
         xml:space="preserve"
         style="font-style:normal;font-variant:normal;font-weight:normal;font-stretch:normal;font-size:220.851px;line-height:1.25;font-family:'Source Sans Variable';-inkscape-font-specification:'Source Sans Variable, @wght=300';font-variant-ligatures:normal;font-variant-caps:normal;font-variant-numeric:normal;font-variant-east-asian:normal;font-variation-settings:'wght' 300;letter-spacing:0px;word-spacing:0px;fill:#ececec;fill-opacity:1;stroke:none;stroke-width:1.15027"
         x="1159.5548"
         y="394.45392"
         id="text7"
         transform="scale(0.95244817,1.0499259)"
         inkscape:label="wa"><tspan
           sodipodi:role="line"
           id="tspan7"
           style="font-style:normal;font-variant:normal;font-weight:normal;font-stretch:normal;font-size:220.851px;font-family:'Source Sans Variable';-inkscape-font-specification:'Source Sans Variable, @wght=300';font-variant-ligatures:normal;font-variant-caps:normal;font-variant-numeric:normal;font-variant-east-asian:normal;font-variation-settings:'wght' 300;fill:#ececec;stroke-width:1.15027"
           x="1159.5548"
           y="394.45392">wa</tspan></text></g></g></svg>
